<!-- public/icons/google.svg -->
<svg xmlns="http://www.w3.org/2000/svg" width="20" height="20" viewBox="0 0 48 48">
  <path fill="#fbc02d" d="M43.611 20.083h-2.006V20H24v8h11.322C33.734 32.507 29.268 35.5 24 35.5c-6.904 0-12.5-5.596-12.5-12.5S17.096 10.5 24 10.5c3.148 0 6.02 1.152 8.222 3.038l6.014-6.015C34.444 3.973 29.507 2 24 2 11.85 2 2 11.85 2 24s9.85 22 22 22c11.203 0 21.048-8.241 21.991-19.045.006-.141.009-.283.009-.425 0-2.263-.262-4.461-.747-6.447z"/>
  <path fill="#e53935" d="M6.306 14.691l6.571 4.819C14.318 16.201 18.855 13 24 13c3.148 0 6.02 1.152 8.222 3.038l6.014-6.015C34.444 3.973 29.507 2 24 2 16.318 2 9.587 6.097 6.306 14.691z"/>
  <path fill="#4caf50" d="M24 46c5.196 0 9.899-1.867 13.518-4.938l-6.258-5.125C28.968 37.442 26.579 38 24 38c-5.231 0-9.711-3.019-11.888-7.383l-6.56 5.061C9.48 41.561 16.28 46 24 46z"/>
  <path fill="#1565c0" d="M43.611 20.083h-2.006V20H24v8h11.322c-1.129 2.837-3.22 5.109-5.562 6.337l.001-.001 6.258 5.125C38.661 36.98 44 31.523 44 24c0-1.364-.13-2.697-.389-3.917z"/>
</svg>
